<svg xmlns="http://www.w3.org/2000/svg" viewBox="0 0 100 100">
  <defs>
    <linearGradient id="grad" x1="0%" y1="0%" x2="100%" y2="100%">
      <stop offset="0%" style="stop-color:#667eea;stop-opacity:1" />
      <stop offset="100%" style="stop-color:#764ba2;stop-opacity:1" />
    </linearGradient>
  </defs>
  
  <!-- Background circle -->
  <circle cx="50" cy="50" r="48" fill="url(#grad)"/>
  
  <!-- Calendar icon -->
  <rect x="25" y="30" width="50" height="45" rx="4" fill="white"/>
  <rect x="25" y="30" width="50" height="12" rx="4" fill="white" opacity="0.3"/>
  
  <!-- Calendar binding rings -->
  <circle cx="35" cy="28" r="3" fill="white"/>
  <circle cx="65" cy="28" r="3" fill="white"/>
  
  <!-- Sync arrows -->
  <path d="M 40 50 L 45 45 L 45 48 L 52 48 L 52 45 L 57 50 L 52 55 L 52 52 L 45 52 L 45 55 Z" fill="url(#grad)"/>
  
  <!-- Calendar grid dots -->
  <circle cx="35" cy="60" r="2" fill="url(#grad)"/>
  <circle cx="50" cy="60" r="2" fill="url(#grad)"/>
  <circle cx="65" cy="60" r="2" fill="url(#grad)"/>
  <circle cx="35" cy="68" r="2" fill="url(#grad)"/>
  <circle cx="50" cy="68" r="2" fill="url(#grad)"/>
  <circle cx="65" cy="68" r="2" fill="url(#grad)"/>
</svg>

